<mxfile host="app.diagrams.net" modified="2024-07-02T11:46:52.662Z" agent="Mozilla/5.0 (Windows NT 10.0; Win64; x64) AppleWebKit/537.36 (KHTML, like Gecko) Chrome/126.0.0.0 Safari/537.36 Edg/126.0.0.0" etag="1pIT4TBX5F4IjtaUAEPI" version="24.6.4" type="device">
  <diagram name="Page-1" id="2YBvvXClWsGukQMizWep">
    <mxGraphModel dx="1066" dy="1713" grid="1" gridSize="10" guides="1" tooltips="1" connect="1" arrows="1" fold="1" page="1" pageScale="1" pageWidth="850" pageHeight="1100" math="0" shadow="0">
      <root>
        <mxCell id="0" />
        <mxCell id="1" parent="0" />
        <mxCell id="g-Km1HqZwec5-ecuQEkv-1" value="" style="html=1;verticalAlign=bottom;startArrow=oval;endArrow=block;startSize=8;edgeStyle=elbowEdgeStyle;elbow=vertical;curved=0;rounded=0;entryX=0.55;entryY=-0.108;entryDx=0;entryDy=0;entryPerimeter=0;" parent="1" edge="1">
          <mxGeometry relative="1" as="geometry">
            <mxPoint x="475" y="-46" as="sourcePoint" />
            <mxPoint x="474.79" y="-0.3199999999999932" as="targetPoint" />
          </mxGeometry>
        </mxCell>
        <mxCell id="g-Km1HqZwec5-ecuQEkv-5" value="&lt;font style=&quot;font-size: 10px;&quot;&gt;Успешный вход&lt;/font&gt;" style="rounded=1;whiteSpace=wrap;html=1;" parent="1" vertex="1">
          <mxGeometry x="560" y="210" width="100" height="40" as="geometry" />
        </mxCell>
        <mxCell id="g-Km1HqZwec5-ecuQEkv-7" value="&lt;font style=&quot;font-size: 10px;&quot;&gt;Просмотр списка заказов&lt;/font&gt;" style="rounded=1;whiteSpace=wrap;html=1;" parent="1" vertex="1">
          <mxGeometry x="685" y="360" width="100" height="40" as="geometry" />
        </mxCell>
        <mxCell id="g-Km1HqZwec5-ecuQEkv-10" value="&lt;span style=&quot;color: rgb(0, 0, 0); font-family: Helvetica; font-style: normal; font-variant-ligatures: normal; font-variant-caps: normal; font-weight: 400; letter-spacing: normal; orphans: 2; text-align: center; text-indent: 0px; text-transform: none; widows: 2; word-spacing: 0px; -webkit-text-stroke-width: 0px; white-space: nowrap; background-color: rgb(255, 255, 255); text-decoration-thickness: initial; text-decoration-style: initial; text-decoration-color: initial; float: none; display: inline !important;&quot;&gt;&lt;font style=&quot;font-size: 9px;&quot;&gt;[Заказы отсутствуют]&lt;/font&gt;&lt;/span&gt;" style="text;whiteSpace=wrap;html=1;" parent="1" vertex="1">
          <mxGeometry x="795" y="360" width="90" height="20" as="geometry" />
        </mxCell>
        <mxCell id="g-Km1HqZwec5-ecuQEkv-12" value="&lt;span style=&quot;font-size: 10px;&quot;&gt;Редактирование товара&lt;/span&gt;" style="rounded=1;whiteSpace=wrap;html=1;" parent="1" vertex="1">
          <mxGeometry x="1085" y="430" width="100" height="40" as="geometry" />
        </mxCell>
        <mxCell id="g-Km1HqZwec5-ecuQEkv-13" value="" style="rhombus;whiteSpace=wrap;html=1;" parent="1" vertex="1">
          <mxGeometry x="580" y="280" width="60" height="40" as="geometry" />
        </mxCell>
        <mxCell id="g-Km1HqZwec5-ecuQEkv-14" value="&lt;span style=&quot;color: rgb(0, 0, 0); font-family: Helvetica; font-style: normal; font-variant-ligatures: normal; font-variant-caps: normal; font-weight: 400; letter-spacing: normal; orphans: 2; text-align: center; text-indent: 0px; text-transform: none; widows: 2; word-spacing: 0px; -webkit-text-stroke-width: 0px; white-space: nowrap; background-color: rgb(255, 255, 255); text-decoration-thickness: initial; text-decoration-style: initial; text-decoration-color: initial; float: none; display: inline !important;&quot;&gt;&lt;font style=&quot;font-size: 9px;&quot;&gt;[Просмотр заказов]&lt;/font&gt;&lt;/span&gt;" style="text;whiteSpace=wrap;html=1;" parent="1" vertex="1">
          <mxGeometry x="655" y="300" width="90" height="20" as="geometry" />
        </mxCell>
        <mxCell id="g-Km1HqZwec5-ecuQEkv-15" value="" style="endArrow=classic;html=1;rounded=0;exitX=1;exitY=0.5;exitDx=0;exitDy=0;entryX=0;entryY=0.5;entryDx=0;entryDy=0;" parent="1" source="g-Km1HqZwec5-ecuQEkv-7" target="tsUbf_piLuMud-lPP5Nm-1" edge="1">
          <mxGeometry width="50" height="50" relative="1" as="geometry">
            <mxPoint x="725" y="470" as="sourcePoint" />
            <mxPoint x="955" y="380" as="targetPoint" />
          </mxGeometry>
        </mxCell>
        <mxCell id="g-Km1HqZwec5-ecuQEkv-16" value="" style="endArrow=classic;html=1;rounded=0;entryX=0.25;entryY=0;entryDx=0;entryDy=0;exitX=1;exitY=1;exitDx=0;exitDy=0;" parent="1" source="g-Km1HqZwec5-ecuQEkv-13" target="g-Km1HqZwec5-ecuQEkv-7" edge="1">
          <mxGeometry width="50" height="50" relative="1" as="geometry">
            <mxPoint x="795" y="390" as="sourcePoint" />
            <mxPoint x="905" y="390" as="targetPoint" />
          </mxGeometry>
        </mxCell>
        <mxCell id="g-Km1HqZwec5-ecuQEkv-17" value="" style="endArrow=classic;html=1;rounded=0;exitX=0;exitY=1;exitDx=0;exitDy=0;entryX=0.75;entryY=0;entryDx=0;entryDy=0;" parent="1" source="g-Km1HqZwec5-ecuQEkv-13" target="g-Km1HqZwec5-ecuQEkv-18" edge="1">
          <mxGeometry width="50" height="50" relative="1" as="geometry">
            <mxPoint x="805" y="400" as="sourcePoint" />
            <mxPoint x="511" y="348" as="targetPoint" />
          </mxGeometry>
        </mxCell>
        <mxCell id="g-Km1HqZwec5-ecuQEkv-18" value="&lt;font style=&quot;font-size: 10px;&quot;&gt;Настройки&lt;/font&gt;" style="rounded=1;whiteSpace=wrap;html=1;" parent="1" vertex="1">
          <mxGeometry x="440" y="350" width="100" height="40" as="geometry" />
        </mxCell>
        <mxCell id="g-Km1HqZwec5-ecuQEkv-19" value="&lt;span style=&quot;color: rgb(0, 0, 0); font-family: Helvetica; font-style: normal; font-variant-ligatures: normal; font-variant-caps: normal; font-weight: 400; letter-spacing: normal; orphans: 2; text-align: center; text-indent: 0px; text-transform: none; widows: 2; word-spacing: 0px; -webkit-text-stroke-width: 0px; white-space: nowrap; background-color: rgb(255, 255, 255); text-decoration-thickness: initial; text-decoration-style: initial; text-decoration-color: initial; float: none; display: inline !important;&quot;&gt;&lt;font style=&quot;font-size: 9px;&quot;&gt;[Зайти в настройки]&lt;/font&gt;&lt;/span&gt;" style="text;whiteSpace=wrap;html=1;" parent="1" vertex="1">
          <mxGeometry x="470" y="310" width="90" height="20" as="geometry" />
        </mxCell>
        <mxCell id="g-Km1HqZwec5-ecuQEkv-20" value="" style="endArrow=none;html=1;rounded=0;entryX=0.5;entryY=1;entryDx=0;entryDy=0;exitX=0.5;exitY=0;exitDx=0;exitDy=0;" parent="1" source="g-Km1HqZwec5-ecuQEkv-13" target="g-Km1HqZwec5-ecuQEkv-5" edge="1">
          <mxGeometry width="50" height="50" relative="1" as="geometry">
            <mxPoint x="445" y="280" as="sourcePoint" />
            <mxPoint x="495" y="230" as="targetPoint" />
          </mxGeometry>
        </mxCell>
        <mxCell id="g-Km1HqZwec5-ecuQEkv-23" value="" style="endArrow=classic;html=1;rounded=0;exitX=0.5;exitY=1;exitDx=0;exitDy=0;entryX=0.5;entryY=0;entryDx=0;entryDy=0;" parent="1" source="g-Km1HqZwec5-ecuQEkv-12" target="g-Km1HqZwec5-ecuQEkv-29" edge="1">
          <mxGeometry width="50" height="50" relative="1" as="geometry">
            <mxPoint x="675" y="520" as="sourcePoint" />
            <mxPoint x="725" y="470" as="targetPoint" />
          </mxGeometry>
        </mxCell>
        <mxCell id="g-Km1HqZwec5-ecuQEkv-24" value="&lt;span style=&quot;font-size: 10px;&quot;&gt;Создание отчета&lt;/span&gt;" style="rounded=1;whiteSpace=wrap;html=1;" parent="1" vertex="1">
          <mxGeometry x="685" y="440" width="100" height="40" as="geometry" />
        </mxCell>
        <mxCell id="g-Km1HqZwec5-ecuQEkv-25" value="&lt;font style=&quot;font-size: 10px;&quot;&gt;Добавление товара&lt;/font&gt;" style="rounded=1;whiteSpace=wrap;html=1;" parent="1" vertex="1">
          <mxGeometry x="950" y="430" width="100" height="40" as="geometry" />
        </mxCell>
        <mxCell id="g-Km1HqZwec5-ecuQEkv-27" value="" style="endArrow=classic;html=1;rounded=0;exitX=0.208;exitY=0.911;exitDx=0;exitDy=0;entryX=0.5;entryY=0;entryDx=0;entryDy=0;exitPerimeter=0;" parent="1" source="tsUbf_piLuMud-lPP5Nm-1" target="g-Km1HqZwec5-ecuQEkv-25" edge="1">
          <mxGeometry width="50" height="50" relative="1" as="geometry">
            <mxPoint x="970" y="390" as="sourcePoint" />
            <mxPoint x="965" y="440" as="targetPoint" />
          </mxGeometry>
        </mxCell>
        <mxCell id="g-Km1HqZwec5-ecuQEkv-28" value="" style="endArrow=classic;html=1;rounded=0;entryX=0.5;entryY=0;entryDx=0;entryDy=0;" parent="1" target="g-Km1HqZwec5-ecuQEkv-12" edge="1">
          <mxGeometry width="50" height="50" relative="1" as="geometry">
            <mxPoint x="1135" y="380" as="sourcePoint" />
            <mxPoint x="975" y="400" as="targetPoint" />
          </mxGeometry>
        </mxCell>
        <mxCell id="g-Km1HqZwec5-ecuQEkv-29" value="&lt;font style=&quot;font-size: 10px;&quot;&gt;Подтверждение редактирования&lt;/font&gt;" style="rounded=1;whiteSpace=wrap;html=1;" parent="1" vertex="1">
          <mxGeometry x="1085" y="510" width="100" height="40" as="geometry" />
        </mxCell>
        <mxCell id="g-Km1HqZwec5-ecuQEkv-30" value="&lt;font style=&quot;font-size: 9px;&quot;&gt;Отображение отредактированного товара&lt;/font&gt;" style="rounded=1;whiteSpace=wrap;html=1;" parent="1" vertex="1">
          <mxGeometry x="1085" y="580" width="100" height="40" as="geometry" />
        </mxCell>
        <mxCell id="g-Km1HqZwec5-ecuQEkv-31" value="" style="endArrow=classic;html=1;rounded=0;exitX=0.5;exitY=1;exitDx=0;exitDy=0;entryX=0.5;entryY=0;entryDx=0;entryDy=0;" parent="1" source="g-Km1HqZwec5-ecuQEkv-29" target="g-Km1HqZwec5-ecuQEkv-30" edge="1">
          <mxGeometry width="50" height="50" relative="1" as="geometry">
            <mxPoint x="1145" y="480" as="sourcePoint" />
            <mxPoint x="1145" y="520" as="targetPoint" />
          </mxGeometry>
        </mxCell>
        <mxCell id="g-Km1HqZwec5-ecuQEkv-33" value="&lt;font style=&quot;font-size: 10px;&quot;&gt;Подтверждение добавления&lt;/font&gt;" style="rounded=1;whiteSpace=wrap;html=1;" parent="1" vertex="1">
          <mxGeometry x="950" y="510" width="100" height="40" as="geometry" />
        </mxCell>
        <mxCell id="g-Km1HqZwec5-ecuQEkv-34" value="&lt;span style=&quot;font-size: 10px;&quot;&gt;Отображение добавленного товара&lt;/span&gt;" style="rounded=1;whiteSpace=wrap;html=1;" parent="1" vertex="1">
          <mxGeometry x="950" y="580" width="100" height="40" as="geometry" />
        </mxCell>
        <mxCell id="g-Km1HqZwec5-ecuQEkv-35" value="" style="endArrow=classic;html=1;rounded=0;exitX=0.5;exitY=1;exitDx=0;exitDy=0;entryX=0.5;entryY=0;entryDx=0;entryDy=0;" parent="1" source="g-Km1HqZwec5-ecuQEkv-25" target="g-Km1HqZwec5-ecuQEkv-33" edge="1">
          <mxGeometry width="50" height="50" relative="1" as="geometry">
            <mxPoint x="1100" y="390" as="sourcePoint" />
            <mxPoint x="1015" y="420" as="targetPoint" />
          </mxGeometry>
        </mxCell>
        <mxCell id="g-Km1HqZwec5-ecuQEkv-36" value="" style="endArrow=classic;html=1;rounded=0;exitX=0.5;exitY=1;exitDx=0;exitDy=0;entryX=0.5;entryY=0;entryDx=0;entryDy=0;" parent="1" source="g-Km1HqZwec5-ecuQEkv-33" target="g-Km1HqZwec5-ecuQEkv-34" edge="1">
          <mxGeometry width="50" height="50" relative="1" as="geometry">
            <mxPoint x="1110" y="400" as="sourcePoint" />
            <mxPoint x="1025" y="430" as="targetPoint" />
          </mxGeometry>
        </mxCell>
        <mxCell id="g-Km1HqZwec5-ecuQEkv-42" value="" style="endArrow=classic;html=1;rounded=0;entryX=0.5;entryY=0;entryDx=0;entryDy=0;exitX=0.5;exitY=1;exitDx=0;exitDy=0;" parent="1" source="g-Km1HqZwec5-ecuQEkv-7" target="g-Km1HqZwec5-ecuQEkv-24" edge="1">
          <mxGeometry width="50" height="50" relative="1" as="geometry">
            <mxPoint x="635" y="320" as="sourcePoint" />
            <mxPoint x="720" y="370" as="targetPoint" />
          </mxGeometry>
        </mxCell>
        <mxCell id="g-Km1HqZwec5-ecuQEkv-43" value="&lt;font style=&quot;font-size: 10px;&quot;&gt;Подтверждение создания отчета&lt;/font&gt;" style="rounded=1;whiteSpace=wrap;html=1;" parent="1" vertex="1">
          <mxGeometry x="685" y="520" width="100" height="40" as="geometry" />
        </mxCell>
        <mxCell id="g-Km1HqZwec5-ecuQEkv-44" value="&lt;span style=&quot;font-size: 10px;&quot;&gt;Отображение созданного отчета&lt;/span&gt;" style="rounded=1;whiteSpace=wrap;html=1;" parent="1" vertex="1">
          <mxGeometry x="685" y="590" width="100" height="40" as="geometry" />
        </mxCell>
        <mxCell id="g-Km1HqZwec5-ecuQEkv-45" value="" style="endArrow=classic;html=1;rounded=0;entryX=0.5;entryY=0;entryDx=0;entryDy=0;exitX=0.5;exitY=1;exitDx=0;exitDy=0;" parent="1" source="g-Km1HqZwec5-ecuQEkv-24" target="g-Km1HqZwec5-ecuQEkv-43" edge="1">
          <mxGeometry width="50" height="50" relative="1" as="geometry">
            <mxPoint x="745" y="410" as="sourcePoint" />
            <mxPoint x="745" y="450" as="targetPoint" />
          </mxGeometry>
        </mxCell>
        <mxCell id="g-Km1HqZwec5-ecuQEkv-46" value="" style="endArrow=classic;html=1;rounded=0;exitX=0.5;exitY=1;exitDx=0;exitDy=0;entryX=0.5;entryY=0;entryDx=0;entryDy=0;" parent="1" source="g-Km1HqZwec5-ecuQEkv-43" target="g-Km1HqZwec5-ecuQEkv-44" edge="1">
          <mxGeometry width="50" height="50" relative="1" as="geometry">
            <mxPoint x="895" y="640" as="sourcePoint" />
            <mxPoint x="895" y="680" as="targetPoint" />
          </mxGeometry>
        </mxCell>
        <mxCell id="g-Km1HqZwec5-ecuQEkv-47" value="&lt;span style=&quot;font-size: 10px;&quot;&gt;Оплата продукта&lt;/span&gt;" style="rounded=1;whiteSpace=wrap;html=1;" parent="1" vertex="1">
          <mxGeometry x="685" y="670" width="100" height="40" as="geometry" />
        </mxCell>
        <mxCell id="g-Km1HqZwec5-ecuQEkv-49" value="&lt;font style=&quot;font-size: 10px;&quot;&gt;Конец&lt;/font&gt;" style="rounded=1;whiteSpace=wrap;html=1;" parent="1" vertex="1">
          <mxGeometry x="280" y="670" width="100" height="40" as="geometry" />
        </mxCell>
        <mxCell id="g-Km1HqZwec5-ecuQEkv-50" value="" style="endArrow=classic;html=1;rounded=0;exitX=0.5;exitY=1;exitDx=0;exitDy=0;entryX=0.5;entryY=0;entryDx=0;entryDy=0;" parent="1" source="g-Km1HqZwec5-ecuQEkv-44" target="g-Km1HqZwec5-ecuQEkv-47" edge="1">
          <mxGeometry width="50" height="50" relative="1" as="geometry">
            <mxPoint x="895" y="640" as="sourcePoint" />
            <mxPoint x="895" y="680" as="targetPoint" />
          </mxGeometry>
        </mxCell>
        <mxCell id="tsUbf_piLuMud-lPP5Nm-1" value="" style="rounded=0;whiteSpace=wrap;html=1;fillColor=#000000;" parent="1" vertex="1">
          <mxGeometry x="950" y="375" width="240" height="10" as="geometry" />
        </mxCell>
        <mxCell id="tsUbf_piLuMud-lPP5Nm-2" value="&lt;font style=&quot;font-size: 10px;&quot;&gt;Вход в личный кабинет&lt;/font&gt;" style="rounded=1;whiteSpace=wrap;html=1;" parent="1" vertex="1">
          <mxGeometry x="425" width="100" height="40" as="geometry" />
        </mxCell>
        <mxCell id="tsUbf_piLuMud-lPP5Nm-4" value="" style="rhombus;whiteSpace=wrap;html=1;" parent="1" vertex="1">
          <mxGeometry x="445" y="100" width="60" height="40" as="geometry" />
        </mxCell>
        <mxCell id="tsUbf_piLuMud-lPP5Nm-5" value="" style="endArrow=none;html=1;rounded=0;entryX=0.5;entryY=1;entryDx=0;entryDy=0;exitX=0.5;exitY=0;exitDx=0;exitDy=0;" parent="1" source="tsUbf_piLuMud-lPP5Nm-4" target="tsUbf_piLuMud-lPP5Nm-2" edge="1">
          <mxGeometry width="50" height="50" relative="1" as="geometry">
            <mxPoint x="594.91" y="190" as="sourcePoint" />
            <mxPoint x="594.91" y="160" as="targetPoint" />
          </mxGeometry>
        </mxCell>
        <mxCell id="tsUbf_piLuMud-lPP5Nm-6" value="" style="endArrow=classic;html=1;rounded=0;entryX=0.5;entryY=0;entryDx=0;entryDy=0;exitX=1;exitY=1;exitDx=0;exitDy=0;" parent="1" target="g-Km1HqZwec5-ecuQEkv-5" edge="1">
          <mxGeometry width="50" height="50" relative="1" as="geometry">
            <mxPoint x="505" y="120" as="sourcePoint" />
            <mxPoint x="590" y="170" as="targetPoint" />
          </mxGeometry>
        </mxCell>
        <mxCell id="tsUbf_piLuMud-lPP5Nm-7" value="&lt;span style=&quot;color: rgb(0, 0, 0); font-family: Helvetica; font-style: normal; font-variant-ligatures: normal; font-variant-caps: normal; font-weight: 400; letter-spacing: normal; orphans: 2; text-align: center; text-indent: 0px; text-transform: none; widows: 2; word-spacing: 0px; -webkit-text-stroke-width: 0px; white-space: nowrap; background-color: rgb(255, 255, 255); text-decoration-thickness: initial; text-decoration-style: initial; text-decoration-color: initial; float: none; display: inline !important;&quot;&gt;&lt;font style=&quot;font-size: 9px;&quot;&gt;[Вход в личный кабинет]&lt;/font&gt;&lt;/span&gt;" style="text;whiteSpace=wrap;html=1;" parent="1" vertex="1">
          <mxGeometry x="560" y="130" width="90" height="20" as="geometry" />
        </mxCell>
        <mxCell id="tsUbf_piLuMud-lPP5Nm-8" value="&lt;span style=&quot;font-size: 10px;&quot;&gt;Ошибка&lt;/span&gt;" style="rounded=1;whiteSpace=wrap;html=1;" parent="1" vertex="1">
          <mxGeometry x="280" y="210" width="100" height="40" as="geometry" />
        </mxCell>
        <mxCell id="tsUbf_piLuMud-lPP5Nm-9" value="" style="endArrow=classic;html=1;rounded=0;exitX=0;exitY=0.5;exitDx=0;exitDy=0;entryX=0.5;entryY=0;entryDx=0;entryDy=0;" parent="1" source="tsUbf_piLuMud-lPP5Nm-4" target="tsUbf_piLuMud-lPP5Nm-8" edge="1">
          <mxGeometry width="50" height="50" relative="1" as="geometry">
            <mxPoint x="310" y="50" as="sourcePoint" />
            <mxPoint x="310" y="190" as="targetPoint" />
          </mxGeometry>
        </mxCell>
        <mxCell id="tsUbf_piLuMud-lPP5Nm-10" value="&lt;div style=&quot;text-align: center;&quot;&gt;&lt;font size=&quot;1&quot;&gt;&lt;span style=&quot;text-wrap: nowrap; background-color: rgb(255, 255, 255);&quot;&gt;[Ошибка входа]&lt;/span&gt;&lt;/font&gt;&lt;/div&gt;" style="text;whiteSpace=wrap;html=1;" parent="1" vertex="1">
          <mxGeometry x="298" y="120" width="90" height="20" as="geometry" />
        </mxCell>
        <mxCell id="tsUbf_piLuMud-lPP5Nm-12" value="" style="endArrow=classic;html=1;rounded=0;exitX=0.5;exitY=1;exitDx=0;exitDy=0;entryX=0.5;entryY=0;entryDx=0;entryDy=0;" parent="1" source="tsUbf_piLuMud-lPP5Nm-8" target="g-Km1HqZwec5-ecuQEkv-49" edge="1">
          <mxGeometry width="50" height="50" relative="1" as="geometry">
            <mxPoint x="465" y="140" as="sourcePoint" />
            <mxPoint x="350" y="230" as="targetPoint" />
          </mxGeometry>
        </mxCell>
        <mxCell id="tsUbf_piLuMud-lPP5Nm-13" value="" style="rounded=0;whiteSpace=wrap;html=1;fillColor=#000000;" parent="1" vertex="1">
          <mxGeometry x="405" y="420" width="185" height="10" as="geometry" />
        </mxCell>
        <mxCell id="tsUbf_piLuMud-lPP5Nm-14" value="&lt;font style=&quot;font-size: 10px;&quot;&gt;Выйти из аккаунта&lt;/font&gt;" style="rounded=1;whiteSpace=wrap;html=1;" parent="1" vertex="1">
          <mxGeometry x="390" y="470" width="100" height="40" as="geometry" />
        </mxCell>
        <mxCell id="tsUbf_piLuMud-lPP5Nm-15" value="&lt;span style=&quot;font-size: 10px;&quot;&gt;Изменение профиля&lt;/span&gt;" style="rounded=1;whiteSpace=wrap;html=1;" parent="1" vertex="1">
          <mxGeometry x="505" y="470" width="100" height="40" as="geometry" />
        </mxCell>
        <mxCell id="tsUbf_piLuMud-lPP5Nm-16" value="&lt;font style=&quot;font-size: 10px;&quot;&gt;Подтверждение изменения профиля&lt;/font&gt;" style="rounded=1;whiteSpace=wrap;html=1;" parent="1" vertex="1">
          <mxGeometry x="505" y="540" width="100" height="40" as="geometry" />
        </mxCell>
        <mxCell id="tsUbf_piLuMud-lPP5Nm-17" value="" style="endArrow=classic;html=1;rounded=0;entryX=0.5;entryY=0;entryDx=0;entryDy=0;" parent="1" target="tsUbf_piLuMud-lPP5Nm-15" edge="1">
          <mxGeometry width="50" height="50" relative="1" as="geometry">
            <mxPoint x="555" y="430" as="sourcePoint" />
            <mxPoint x="745" y="680" as="targetPoint" />
          </mxGeometry>
        </mxCell>
        <mxCell id="tsUbf_piLuMud-lPP5Nm-18" value="" style="endArrow=classic;html=1;rounded=0;exitX=0.5;exitY=1;exitDx=0;exitDy=0;entryX=0.5;entryY=0;entryDx=0;entryDy=0;" parent="1" source="tsUbf_piLuMud-lPP5Nm-15" target="tsUbf_piLuMud-lPP5Nm-16" edge="1">
          <mxGeometry width="50" height="50" relative="1" as="geometry">
            <mxPoint x="755" y="650" as="sourcePoint" />
            <mxPoint x="755" y="690" as="targetPoint" />
          </mxGeometry>
        </mxCell>
        <mxCell id="tsUbf_piLuMud-lPP5Nm-19" value="" style="endArrow=classic;html=1;rounded=0;exitX=0.5;exitY=1;exitDx=0;exitDy=0;entryX=0.5;entryY=0;entryDx=0;entryDy=0;" parent="1" edge="1">
          <mxGeometry width="50" height="50" relative="1" as="geometry">
            <mxPoint x="439.84" y="430" as="sourcePoint" />
            <mxPoint x="439.84" y="470" as="targetPoint" />
          </mxGeometry>
        </mxCell>
        <mxCell id="tsUbf_piLuMud-lPP5Nm-20" value="" style="endArrow=classic;html=1;rounded=0;exitX=0.5;exitY=1;exitDx=0;exitDy=0;" parent="1" source="g-Km1HqZwec5-ecuQEkv-18" edge="1">
          <mxGeometry width="50" height="50" relative="1" as="geometry">
            <mxPoint x="490" y="390" as="sourcePoint" />
            <mxPoint x="490" y="420" as="targetPoint" />
          </mxGeometry>
        </mxCell>
        <mxCell id="tsUbf_piLuMud-lPP5Nm-23" value="" style="ellipse;whiteSpace=wrap;html=1;" parent="1" vertex="1">
          <mxGeometry x="735" y="920" width="30" height="30" as="geometry" />
        </mxCell>
        <mxCell id="ytrfEY6taa757HYw-NQ--1" value="&lt;span style=&quot;color: rgb(0, 0, 0); font-family: Helvetica; font-style: normal; font-variant-ligatures: normal; font-variant-caps: normal; font-weight: 400; letter-spacing: normal; orphans: 2; text-align: center; text-indent: 0px; text-transform: none; widows: 2; word-spacing: 0px; -webkit-text-stroke-width: 0px; white-space: nowrap; background-color: rgb(255, 255, 255); text-decoration-thickness: initial; text-decoration-style: initial; text-decoration-color: initial; float: none; display: inline !important;&quot;&gt;&lt;font style=&quot;font-size: 9px;&quot;&gt;[Заказы присутствуют]&lt;/font&gt;&lt;/span&gt;" style="text;whiteSpace=wrap;html=1;" parent="1" vertex="1">
          <mxGeometry x="740" y="410" width="90" height="20" as="geometry" />
        </mxCell>
        <mxCell id="ytrfEY6taa757HYw-NQ--2" value="" style="rounded=0;whiteSpace=wrap;html=1;fillColor=#000000;" parent="1" vertex="1">
          <mxGeometry x="300" y="820" width="900" height="10" as="geometry" />
        </mxCell>
        <mxCell id="ytrfEY6taa757HYw-NQ--3" value="" style="endArrow=classic;html=1;rounded=0;exitX=0.5;exitY=1;exitDx=0;exitDy=0;" parent="1" source="g-Km1HqZwec5-ecuQEkv-49" edge="1">
          <mxGeometry width="50" height="50" relative="1" as="geometry">
            <mxPoint x="260" y="840" as="sourcePoint" />
            <mxPoint x="330" y="820" as="targetPoint" />
          </mxGeometry>
        </mxCell>
        <mxCell id="ytrfEY6taa757HYw-NQ--4" value="" style="endArrow=classic;html=1;rounded=0;exitX=0.5;exitY=1;exitDx=0;exitDy=0;" parent="1" source="tsUbf_piLuMud-lPP5Nm-14" edge="1">
          <mxGeometry width="50" height="50" relative="1" as="geometry">
            <mxPoint x="440" y="710" as="sourcePoint" />
            <mxPoint x="440" y="820" as="targetPoint" />
          </mxGeometry>
        </mxCell>
        <mxCell id="ytrfEY6taa757HYw-NQ--5" value="" style="endArrow=classic;html=1;rounded=0;" parent="1" edge="1">
          <mxGeometry width="50" height="50" relative="1" as="geometry">
            <mxPoint x="560" y="580" as="sourcePoint" />
            <mxPoint x="560" y="820" as="targetPoint" />
          </mxGeometry>
        </mxCell>
        <mxCell id="ytrfEY6taa757HYw-NQ--6" value="" style="endArrow=classic;html=1;rounded=0;exitX=0.5;exitY=1;exitDx=0;exitDy=0;entryX=0.483;entryY=-0.052;entryDx=0;entryDy=0;entryPerimeter=0;" parent="1" source="g-Km1HqZwec5-ecuQEkv-47" target="ytrfEY6taa757HYw-NQ--2" edge="1">
          <mxGeometry width="50" height="50" relative="1" as="geometry">
            <mxPoint x="640" y="490" as="sourcePoint" />
            <mxPoint x="640" y="798" as="targetPoint" />
          </mxGeometry>
        </mxCell>
        <mxCell id="ytrfEY6taa757HYw-NQ--7" value="" style="endArrow=classic;html=1;rounded=0;exitX=0.5;exitY=1;exitDx=0;exitDy=0;entryX=0.778;entryY=-0.1;entryDx=0;entryDy=0;entryPerimeter=0;" parent="1" source="g-Km1HqZwec5-ecuQEkv-34" target="ytrfEY6taa757HYw-NQ--2" edge="1">
          <mxGeometry width="50" height="50" relative="1" as="geometry">
            <mxPoint x="890" y="520" as="sourcePoint" />
            <mxPoint x="890" y="828" as="targetPoint" />
          </mxGeometry>
        </mxCell>
        <mxCell id="ytrfEY6taa757HYw-NQ--9" value="" style="endArrow=classic;html=1;rounded=0;entryX=0.929;entryY=-0.041;entryDx=0;entryDy=0;entryPerimeter=0;exitX=0.5;exitY=1;exitDx=0;exitDy=0;" parent="1" source="g-Km1HqZwec5-ecuQEkv-30" target="ytrfEY6taa757HYw-NQ--2" edge="1">
          <mxGeometry width="50" height="50" relative="1" as="geometry">
            <mxPoint x="1220" y="680" as="sourcePoint" />
            <mxPoint x="1260" y="808" as="targetPoint" />
          </mxGeometry>
        </mxCell>
        <mxCell id="ytrfEY6taa757HYw-NQ--10" value="" style="endArrow=classic;html=1;rounded=0;exitX=0.5;exitY=1;exitDx=0;exitDy=0;" parent="1" source="ytrfEY6taa757HYw-NQ--2" edge="1">
          <mxGeometry width="50" height="50" relative="1" as="geometry">
            <mxPoint x="660" y="920" as="sourcePoint" />
            <mxPoint x="750" y="920" as="targetPoint" />
          </mxGeometry>
        </mxCell>
        <mxCell id="qnypMPbzKBPDAZLXqhRp-1" value="" style="ellipse;whiteSpace=wrap;html=1;fillColor=#000000;" parent="1" vertex="1">
          <mxGeometry x="738" y="923" width="24" height="24" as="geometry" />
        </mxCell>
      </root>
    </mxGraphModel>
  </diagram>
</mxfile>
